<svg xmlns="http://www.w3.org/2000/svg" width="1024" height="1024"><path d="M496 246.676c-84.662 1.647-174.133 8.451-261.5 19.888-36.906 4.831-51.107 7.181-54.737 9.058-4.917 2.543-12.766 10.45-15.246 15.358-7.133 14.12-4.931 29.249 5.949 40.881 9.116 9.744 19.712 11.805 42.534 8.272 19.082-2.955 39.945-5.676 66-8.61 21.968-2.473 63.35-6.491 63.652-6.179.083.086 15.93 59.729 35.216 132.54 21.473 81.072 35.719 133.107 36.753 134.25 1.578 1.743 3.685 1.866 32.034 1.866H477l-.033 29.75-.032 29.75-43.078 30c-23.693 16.5-45.129 32.024-47.636 34.498-7.109 7.014-9.721 13.597-9.721 24.502 0 7.81.366 9.746 2.77 14.642 7.799 15.88 28.984 24.668 44.295 18.374 1.686-.692 21.869-14.399 44.853-30.458 22.983-16.06 42.375-29.425 43.094-29.701.719-.276 19.911 12.519 42.648 28.433 22.737 15.914 42.915 29.784 44.84 30.822 2.797 1.509 5.61 1.888 14 1.888 10.05 0 10.769-.146 16.785-3.408 7.383-4.003 11.531-8.407 15.114-16.046 2.198-4.687 2.601-6.941 2.601-14.546 0-7.893-.354-9.722-2.881-14.867-1.584-3.227-5.184-8.07-8-10.762-2.815-2.693-24.019-18.089-47.119-34.213l-42-29.317-.265-29.671-.265-29.67h33.324c26.106 0 33.717-.287 35.138-1.327 1.397-1.021 9.202-32.128 33.988-135.463 17.696-73.776 32.38-134.343 32.632-134.595.577-.577 43.359 3.72 63.948 6.423 18.671 2.452 46.751 7.065 64.5 10.598 22.316 4.442 33.62 2.392 43.682-7.92 10.52-10.782 12.405-26.341 5.027-41.506-2.834-5.827-9.552-12.62-14.543-14.705-6.628-2.77-52.865-10.978-89.666-15.919-77.085-10.348-165.119-14.737-259-12.91m108.99 89.574c-4.635 3.155-7.047 6.757-7.679 11.47-1.036 7.725.823 10.645 17.567 27.59 8.592 8.695 17.109 16.735 18.927 17.865 3.987 2.48 11.54 2.736 15.772.535 8.265-4.298 11.441-12.945 7.882-21.463-1.86-4.452-31.344-34.49-36.042-36.719-4.867-2.31-12.463-1.976-16.427.722m-25.024 40c-7.671 3.872-10.999 13.113-7.574 21.032 1.986 4.594 48.365 50.395 51.918 51.271 9.797 2.418 19.849-3.598 21.338-12.771 1.432-8.826.967-9.498-23.975-34.643-28.138-28.366-31.199-30.193-41.707-24.889m-12.936 51.333c-4.347 1.886-6.812 4.094-8.748 7.838-1.956 3.783-1.938 11.43.036 15.156 2.213 4.176 47.505 48.888 51.598 50.936 4.318 2.161 12.158 1.562 15.908-1.215 7.763-5.749 9.518-15.293 4.295-23.352-4.414-6.811-45.937-47.556-50.337-49.393-4.611-1.926-8.262-1.917-12.752.03m-5.662 59.505c-4.445 1.289-10.004 7.8-10.829 12.683-1.426 8.436-.326 10.009 23.682 33.898 21.095 20.988 22.52 22.201 26.808 22.829 11.994 1.755 22.342-9.523 19.036-20.748-1.033-3.507-4.866-7.9-21.909-25.112-24.227-24.469-27.153-26.343-36.788-23.55" fill="undefined" fill-rule="evenodd"/></svg>